Coordinates
version=1
nRows=7
nColumns=40
inDegrees=yes

Units are S.I. units (second, meters, Newtons, ...)
Angles are in degrees.

endheader
time	pelvis_tilt	pelvis_list	pelvis_rotation	pelvis_tx	pelvis_ty	pelvis_tz	hip_flexion_r	hip_adduction_r	hip_rotation_r	knee_angle_r	knee_angle_r_beta	ankle_angle_r	subtalar_angle_r	mtp_angle_r	hip_flexion_l	hip_adduction_l	hip_rotation_l	knee_angle_l	knee_angle_l_beta	ankle_angle_l	subtalar_angle_l	mtp_angle_l	lumbar_extension	lumbar_bending	lumbar_rotation	arm_flex_r	arm_add_r	arm_rot_r	elbow_flex_r	pro_sup_r	wrist_flex_r	wrist_dev_r	arm_flex_l	arm_add_l	arm_rot_l	elbow_flex_l	pro_sup_l	wrist_flex_l	wrist_dev_l
      7.92250000	     -4.81683783	     -5.79016600	      0.40946559	      0.99564431	      0.92353419	      0.50245252	     20.77376196	      0.99493019	    -17.25857661	     15.80458645	     15.80458645	      2.38094699	      4.69857750	     -4.90948713	      9.18256869	    -11.00890301	     -3.36456165	     44.26834706	     44.26834706	     12.45747077	    -15.62243934	     -4.21753183	    -11.06566722	      7.31961964	      2.78039529	     -7.95552553	    -12.38208614	     -2.68160093	     28.26518263	     46.15253830	      0.00000000	      0.00000000	      9.02135122	    -12.97994370	    -11.46632691	    109.97009578	     48.84390472	      0.00000000	      0.00000000
      7.93371429	     -4.71600675	     -6.05930601	      0.69596437	      0.99489663	      0.92444612	      0.50382298	     19.95345325	      1.34382059	    -17.70791166	     15.45547796	     15.45547796	      2.78992628	      5.07397108	     -5.08301830	     11.08066480	    -11.56481374	     -2.62585286	     47.88417793	     47.88417793	     11.12055174	    -16.53049426	     -3.55719114	    -11.28995929	      7.59245967	      2.80173444	     -6.20393617	    -12.77357693	     -2.62108028	     28.84987186	     46.13942904	      0.00000000	      0.00000000	      8.16044955	    -12.47783523	    -10.87101536	    108.62126569	     48.77661271	      0.00000000	      0.00000000
      7.94492857	     -4.56920742	     -6.26321761	      0.93643834	      0.99414817	      0.92525817	      0.50504455	     19.11843709	      1.63049061	    -18.06763062	     15.17696393	     15.17696393	      3.29010197	      5.48470318	     -5.33566595	     12.89123181	    -12.00044409	     -1.94653574	     51.22124356	     51.22124356	      9.98049083	    -17.38529143	     -2.69377823	    -11.53939644	      7.85909540	      2.80742876	     -4.22425732	    -13.17642853	     -2.57260008	     29.54580256	     46.12427331	      0.00000000	      0.00000000	      7.31488423	    -12.02181068	    -10.24518110	    106.88784555	     48.69876845	      0.00000000	      0.00000000
      7.95614286	     -4.55993962	     -6.27138870	      1.27650680	      0.99325384	      0.92579319	      0.50585612	     18.40361508	      1.62514649	    -18.72182634	     14.82800052	     14.82800052	      3.43714914	      6.26998035	     -6.31411127	     15.20690705	    -11.94216697	     -0.83305942	     55.01255074	     55.01255074	     12.10152044	    -17.04815939	      6.02708804	    -11.42488342	      7.93020543	      3.41914004	     -3.11041980	    -13.82787631	     -1.32036827	     30.34993729	     46.01135911	      0.00000000	      0.00000000	      7.54415710	    -11.86099125	     -8.47136089	    102.18350320	     48.53349793	      0.00000000	      0.00000000
      7.96735714	     -4.44335328	     -6.41794732	      1.53178221	      0.99238355	      0.92630351	      0.50696231	     17.67956773	      1.86074658	    -18.96179438	     14.65529219	     14.65529219	      3.82729683	      6.42344315	     -6.66959048	     17.08420651	    -12.22564316	     -0.15318287	     57.81323249	     57.81323249	     11.81449145	    -17.52586993	      8.00192712	    -11.53091324	      8.08925237	      3.58244700	     -1.41256589	    -14.37392340	     -0.94544511	     31.35217727	     45.95929462	      0.00000000	      0.00000000	      7.10478756	    -11.43027612	     -7.75551446	     98.99090037	     48.44946396	      0.00000000	      0.00000000
      7.97857143	     -4.29915164	     -6.57197153	      1.77747732	      0.99149857	      0.92669119	      0.50812674	     16.98970223	      2.12366686	    -19.03275878	     14.57949469	     14.57949469	      4.22583985	      6.29631625	     -7.00809795	     18.92233486	    -12.51601546	      0.49251464	     60.27573646	     60.27573646	     11.83863552	    -17.81376648	     10.04111588	    -11.67283554	      8.22948464	      3.84320360	      0.25078753	    -14.93412809	     -0.64389078	     32.53279536	     45.90564040	      0.00000000	      0.00000000	      6.74294306	    -11.27600301	     -6.54039183	     95.58584629	     48.33581880	      0.00000000	      0.00000000
      7.98978571	     -4.17569095	     -6.71995419	      2.01255799	      0.99054005	      0.92697880	      0.50928363	     16.37628058	      2.39793764	    -18.94927316	     14.57870977	     14.57870977	      4.67259352	      5.92477623	     -7.20088927	     20.71414161	    -12.80300698	      1.07580829	     62.24944198	     62.24944198	     11.64458866	    -18.10541469	     10.90337756	    -11.77282455	      8.33342444	      4.01500548	      2.12345304	    -15.40124439	     -0.52282741	     33.41480416	     45.87765623	      0.00000000	      0.00000000	      6.38913556	    -10.89248606	     -5.83011931	     91.90603334	     48.23272658	      0.00000000	      0.00000000
